<!--?xml version="1.0" encoding="UTF-8"?-->
<svg id="loadingLogo" xmlns="http://www.w3.org/2000/svg" width="184" height="170" viewBox="0 0 184 170">
    <path fill="#0078D7" fill-rule="evenodd" d="M183.2 49.8v80c0 1.733-.6 3.2-1.8 4.4-1.2 1.2-2.667 1.8-4.4 1.8h-65.2V82.8l12.2 9.4c.8.667 1.767 1 2.9 1s2.1-.333 2.9-1l53.4-42.4zm-71.4-15.4H177c1.6 0 2.967.5 4.1 1.5 1.133 1 1.767 2.3 1.9 3.9l-56.2 44.8-15-11.8V34.4zM102.4 0v170L0 152.4V18.2L102.4 0zm-31 85.4c-.133-8.667-2.367-15.833-6.7-21.5s-9.767-8.633-16.3-8.9c-6.4.267-11.767 3.233-16.1 8.9-4.333 5.667-6.567 12.833-6.7 21.5.133 8.533 2.367 15.633 6.7 21.3 4.333 5.667 9.7 8.633 16.1 8.9 6.533-.267 11.967-3.233 16.3-8.9s6.567-12.767 6.7-21.3zm-23.8-19c3.333.133 6.1 1.967 8.3 5.5 2.2 3.533 3.3 8 3.3 13.4s-1.1 9.867-3.3 13.4c-2.2 3.533-4.967 5.3-8.3 5.3-3.333 0-6.1-1.767-8.3-5.3-2.2-3.533-3.3-8-3.3-13.4s1.1-9.867 3.3-13.4c2.2-3.533 4.967-5.367 8.3-5.5z" />
</svg>
